<?xml version="1.0" encoding="UTF-8" standalone="no"?>
<!DOCTYPE svg PUBLIC "-//W3C//DTD SVG 1.1//EN"
 "http://www.w3.org/Graphics/SVG/1.1/DTD/svg11.dtd">
<!-- Generated by graphviz version 3.0.0 (20220413.0242)
 -->
<!-- Title: application_state_diagram Pages: 1 -->
<svg width="192pt" height="195pt"
 viewBox="0.00 0.00 192.37 195.00" xmlns="http://www.w3.org/2000/svg" xmlns:xlink="http://www.w3.org/1999/xlink">
<g id="graph0" class="graph" transform="scale(1 1) rotate(0) translate(4 191)">
<title>application_state_diagram</title>
<g id="a_graph0"><a xlink:href="index.html" xlink:title="ALPS Tutorial" target="_parent">
<polygon fill="white" stroke="transparent" points="-4,4 -4,-191 188.37,-191 188.37,4 -4,4"/>
<text text-anchor="middle" x="92.18" y="-171.8" font-family="Helvetica,sans-Serif" font-size="14.00">ALPS Tutorial</text>
</a>
</g>
<!-- Blog -->
<g id="node1" class="node">
<title>Blog</title>
<g id="a_node1"><a xlink:href="docs/semantic.Blog.html" xlink:title="&lt;TABLE&gt;" target="_parent">
<polygon fill="lightgray" stroke="black" stroke-width="2" points="112.87,-164 23.87,-164 23.87,-122 112.87,-122 112.87,-164"/>
<text text-anchor="start" x="55.87" y="-146.8" font-family="Times,serif" font-size="14.00">Blog</text>
<text text-anchor="start" x="30.37" y="-131.8" font-family="Times,serif" font-size="14.00">(BlogPosting)</text>
</a>
</g>
</g>
<!-- BlogPosting -->
<g id="node2" class="node">
<title>BlogPosting</title>
<g id="a_node2"><a xlink:href="docs/semantic.BlogPosting.html" xlink:title="&lt;TABLE&gt;" target="_parent">
<polygon fill="lightgray" stroke="black" stroke-width="2" points="112.87,-72 23.87,-72 23.87,0 112.87,0 112.87,-72"/>
<text text-anchor="start" x="34.87" y="-54.8" font-family="Times,serif" font-size="14.00">BlogPosting</text>
<text text-anchor="start" x="58.87" y="-39.8" font-family="Times,serif" font-size="14.00">(id)</text>
<text text-anchor="start" x="30.37" y="-24.8" font-family="Times,serif" font-size="14.00">(dateCreated)</text>
<text text-anchor="start" x="31.87" y="-9.8" font-family="Times,serif" font-size="14.00">(articleBody)</text>
</a>
</g>
</g>
<!-- Blog&#45;&gt;BlogPosting -->
<g id="edge1" class="edge">
<title>Blog&#45;&gt;BlogPosting</title>
<g id="a_edge1"><a xlink:href="docs/safe.goBlogPosting.html" xlink:title="goBlogPosting (safe)" target="_parent">
<path fill="none" stroke="black" d="M23.82,-124.41C15.64,-119.1 8.18,-112.39 3.37,-104 -4.59,-90.13 3.24,-77.01 15.86,-66.11"/>
<polygon fill="black" stroke="black" points="18.02,-68.86 23.77,-59.96 13.73,-63.33 18.02,-68.86"/>
</a>
</g>
<g id="a_edge1&#45;label"><a xlink:href="docs/safe.goBlogPosting.html" xlink:title="goBlogPosting (safe)" target="_parent">
<text text-anchor="start" x="3.37" y="-93.6" font-family="Times,serif" font-size="13.00">goBlogPosting (safe)</text>
</a>
</g>
</g>
<!-- BlogPosting&#45;&gt;Blog -->
<g id="edge2" class="edge">
<title>BlogPosting&#45;&gt;Blog</title>
<g id="a_edge2"><a xlink:href="docs/safe.goBlog.html" xlink:title="goBlog (safe)" target="_parent">
<path fill="none" stroke="black" d="M103.8,-72.19C107.7,-77.77 111.08,-83.77 113.37,-90 116.6,-98.81 113.61,-107.11 107.91,-114.38"/>
<polygon fill="black" stroke="black" points="105.17,-112.18 100.83,-121.85 110.25,-117 105.17,-112.18"/>
</a>
</g>
<g id="a_edge2&#45;label"><a xlink:href="docs/safe.goBlog.html" xlink:title="goBlog (safe)" target="_parent">
<text text-anchor="start" x="114.37" y="-93.6" font-family="Times,serif" font-size="13.00">goBlog (safe)</text>
</a>
</g>
</g>
</g>
</svg>
